<svg width="954" height="193" viewBox="0 0 954 193" fill="none" xmlns="http://www.w3.org/2000/svg">
<circle cx="928.487" cy="37.5609" r="9.46766" fill="url(#paint0_linear_640_139)"/>
<path d="M928.485 65.5849L928.485 166.315" stroke="white" stroke-width="15.1482" stroke-linecap="round" stroke-linejoin="round"/>
<circle cx="815.02" cy="104.468" r="9.46766" fill="url(#paint1_linear_640_139)"/>
<path d="M786.807 35.6163V165.317" stroke="white" stroke-width="15.1482" stroke-linecap="round" stroke-linejoin="round"/>
<path d="M890.762 36V165.701" stroke="white" stroke-width="15.1482" stroke-linecap="round" stroke-linejoin="round"/>
<path d="M843.897 104H884.798" stroke="white" stroke-width="15.1482" stroke-linecap="round" stroke-linejoin="round"/>
<circle cx="577.457" cy="104.468" r="9.46766" fill="url(#paint2_linear_640_139)"/>
<path d="M482 166L546 36.5L569 82" stroke="white" stroke-width="15.1482" stroke-linecap="round" stroke-linejoin="round"/>
<path d="M590 125L611.5 166" stroke="white" stroke-width="15.1482" stroke-linecap="round" stroke-linejoin="round"/>
<circle cx="294.457" cy="104.468" r="9.46766" fill="url(#paint3_linear_640_139)"/>
<path d="M199 166L263 36.5L286 82" stroke="white" stroke-width="15.1482" stroke-linecap="round" stroke-linejoin="round"/>
<path d="M307 125L328.5 166" stroke="white" stroke-width="15.1482" stroke-linecap="round" stroke-linejoin="round"/>
<path d="M357 36H423C441.778 36 457 51.2223 457 70V70C457 88.7777 441.778 104 423 104H384" stroke="white" stroke-width="15.1482" stroke-linecap="round" stroke-linejoin="round"/>
<path d="M386 104H426.5C443.345 104 457 117.655 457 134.5V134.5C457 151.345 443.345 165 426.5 165H360" stroke="white" stroke-width="15.1482" stroke-linecap="round" stroke-linejoin="round"/>
<circle cx="358.968" cy="104.468" r="9.46766" fill="url(#paint4_linear_640_139)"/>
<circle cx="627.841" cy="104.468" r="9.46766" fill="url(#paint5_linear_640_139)"/>
<path d="M630.99 79.5C631.454 78.1462 631.962 76.8123 632.51 75.5C642.453 51.7104 665.886 35 693.21 35C723.505 35 749.018 55.5425 756.662 83.5M634.342 130.5C645.139 152.142 667.445 167 693.21 167C719.944 167 742.953 151.003 753.247 128.031" stroke="white" stroke-width="15.1482" stroke-linecap="round" stroke-linejoin="round"/>
<path fill-rule="evenodd" clip-rule="evenodd" d="M96.0429 178.417C143.379 178.417 181.753 140.044 181.753 92.7085C181.753 45.373 143.379 7 96.0429 7C67.239 7 41.7536 21.2084 26.2134 42.9988H57.9266C61.7134 42.9988 64.7833 46.0686 64.7833 49.8555C64.7833 53.6423 61.7134 56.7121 57.9266 56.7121H18.2362C16.6983 60.0307 15.3665 63.4641 14.2571 66.9961H108.344C112.131 66.9961 115.201 70.066 115.201 73.8528C115.201 77.6396 112.131 80.7095 108.344 80.7095H11.1667C10.6446 84.4362 10.3621 88.2398 10.3354 92.1041H43.8098C47.5967 92.1041 50.6665 95.174 50.6665 98.9608C50.6665 102.748 47.5967 105.817 43.8098 105.817H11.3296C11.8996 109.532 12.708 113.167 13.7388 116.708H108.344C112.131 116.708 115.201 119.778 115.201 123.564C115.201 127.351 112.131 130.421 108.344 130.421H19.0549C21.0817 134.551 23.4311 138.494 26.0701 142.217H57.9266C61.7134 142.217 64.7833 145.287 64.7833 149.074C64.7833 152.86 61.7134 155.93 57.9266 155.93H38.1712C53.4195 169.895 73.7361 178.417 96.0429 178.417ZM127.171 130.421C123.384 130.421 120.314 127.351 120.314 123.564C120.314 119.778 123.384 116.708 127.171 116.708C130.958 116.708 134.028 119.778 134.028 123.564C134.028 127.351 130.958 130.421 127.171 130.421ZM120.314 73.8528C120.314 77.6396 123.384 80.7095 127.171 80.7095C130.958 80.7095 134.028 77.6396 134.028 73.8528C134.028 70.066 130.958 66.9961 127.171 66.9961C123.384 66.9961 120.314 70.066 120.314 73.8528ZM68.8169 149.118C68.8169 152.905 71.8868 155.975 75.6736 155.975C79.4605 155.975 82.5304 152.905 82.5304 149.118C82.5304 145.331 79.4605 142.262 75.6736 142.262C71.8868 142.262 68.8169 145.331 68.8169 149.118ZM75.6736 56.7121C71.8868 56.7121 68.8169 53.6423 68.8169 49.8555C68.8169 46.0686 71.8868 42.9988 75.6736 42.9988C79.4605 42.9988 82.5304 46.0686 82.5304 49.8555C82.5304 53.6423 79.4605 56.7121 75.6736 56.7121ZM75.9754 98.9608C75.9754 102.748 79.0452 105.817 82.8321 105.817H159.948C163.735 105.817 166.805 102.748 166.805 98.9608C166.805 95.174 163.735 92.1041 159.948 92.1041H82.8321C79.0452 92.1041 75.9754 95.174 75.9754 98.9608ZM63.2708 105.817C59.4839 105.817 56.414 102.748 56.414 98.9608C56.414 95.174 59.4839 92.1041 63.2708 92.1041C67.0576 92.1041 70.1275 95.174 70.1275 98.9608C70.1275 102.748 67.0576 105.817 63.2708 105.817Z" fill="url(#paint6_linear_640_139)"/>
<defs>
<linearGradient id="paint0_linear_640_139" x1="934.546" y1="30.4601" x2="928.366" y2="46.9832" gradientUnits="userSpaceOnUse">
<stop offset="0.0657005" stop-color="#B6B2ED"/>
<stop offset="0.268082" stop-color="#DAB9C9"/>
<stop offset="0.600983" stop-color="#ECBBBA"/>
<stop offset="0.741032" stop-color="#FBA994"/>
<stop offset="1" stop-color="#F5AB82"/>
</linearGradient>
<linearGradient id="paint1_linear_640_139" x1="821.08" y1="97.3669" x2="814.899" y2="113.89" gradientUnits="userSpaceOnUse">
<stop offset="0.0657005" stop-color="#B6B2ED"/>
<stop offset="0.268082" stop-color="#DAB9C9"/>
<stop offset="0.490779" stop-color="#ECBBBA"/>
<stop offset="0.741032" stop-color="#FBA994"/>
<stop offset="1" stop-color="#FA9A65"/>
</linearGradient>
<linearGradient id="paint2_linear_640_139" x1="583.516" y1="97.3669" x2="577.336" y2="113.89" gradientUnits="userSpaceOnUse">
<stop offset="0.0657005" stop-color="#B6B2ED"/>
<stop offset="0.268082" stop-color="#DAB9C9"/>
<stop offset="0.600983" stop-color="#ECBBBA"/>
<stop offset="0.741032" stop-color="#FBA994"/>
<stop offset="1" stop-color="#F5AB82"/>
</linearGradient>
<linearGradient id="paint3_linear_640_139" x1="300.516" y1="97.3669" x2="294.336" y2="113.89" gradientUnits="userSpaceOnUse">
<stop offset="0.0657005" stop-color="#B6B2ED"/>
<stop offset="0.268082" stop-color="#DAB9C9"/>
<stop offset="0.600983" stop-color="#ECBBBA"/>
<stop offset="0.741032" stop-color="#FBA994"/>
<stop offset="1" stop-color="#F5AB82"/>
</linearGradient>
<linearGradient id="paint4_linear_640_139" x1="365.027" y1="97.3669" x2="358.847" y2="113.89" gradientUnits="userSpaceOnUse">
<stop offset="0.0657005" stop-color="#B6B2ED"/>
<stop offset="0.268082" stop-color="#DAB9C9"/>
<stop offset="0.600983" stop-color="#ECBBBA"/>
<stop offset="0.741032" stop-color="#FBA994"/>
<stop offset="1" stop-color="#F5AB82"/>
</linearGradient>
<linearGradient id="paint5_linear_640_139" x1="633.9" y1="97.3669" x2="627.72" y2="113.89" gradientUnits="userSpaceOnUse">
<stop offset="0.0657005" stop-color="#B6B2ED"/>
<stop offset="0.268082" stop-color="#DAB9C9"/>
<stop offset="0.600983" stop-color="#ECBBBA"/>
<stop offset="0.741032" stop-color="#FBA994"/>
<stop offset="1" stop-color="#F5AB82"/>
</linearGradient>
<linearGradient id="paint6_linear_640_139" x1="150.897" y1="28.4271" x2="94.9482" y2="178.008" gradientUnits="userSpaceOnUse">
<stop offset="0.0657005" stop-color="#B6B2ED"/>
<stop offset="0.268082" stop-color="#DAB9C9"/>
<stop offset="0.490779" stop-color="#ECBBBA"/>
<stop offset="0.741032" stop-color="#FBA994"/>
<stop offset="1" stop-color="#FA9A65"/>
</linearGradient>
</defs>
</svg>
